<?xml version="1.0" encoding="UTF-8"?>
<svg id="_图层_1" data-name="图层 1" xmlns="http://www.w3.org/2000/svg" viewBox="0 0 693.38 693.38">
  <defs>
    <style>
      .cls-1 {
        fill: #666;
      }
    </style>
  </defs>
  <path class="cls-1" d="M547.19,498.93l146.19,146.16-48.3,48.3-146.16-146.19c-54.38,43.6-122.03,67.31-191.73,67.21C137.62,614.4,0,476.77,0,307.2S137.62,0,307.2,0s307.2,137.62,307.2,307.2c.1,69.7-23.61,137.34-67.21,191.73h0ZM478.72,473.6c43.32-44.55,67.51-104.27,67.41-166.4,0-132.03-106.94-238.93-238.93-238.93s-238.93,106.91-238.93,238.93,106.91,238.93,238.93,238.93c62.14.1,121.85-24.09,166.4-67.41l5.12-5.12ZM478.72,473.6"/>
</svg>