<?xml version="1.0" encoding="UTF-8"?>
<svg id="_图层_1" data-name="图层 1" xmlns="http://www.w3.org/2000/svg" viewBox="0 0 682.67 614.4">
  <defs>
    <style>
      .cls-1 {
        fill: #fff;
      }
    </style>
  </defs>
  <path class="cls-1" d="M0,204.59c-.04-54.31,21.54-106.4,59.96-144.78C98.38,21.43,150.49-.09,204.8,0h273.07C590.95,0,682.67,91.99,682.67,204.59v409.81H204.8C91.72,614.4,0,522.41,0,409.8v-205.21ZM614.4,546.13V204.59c-.19-75.29-61.24-136.25-136.53-136.33H204.8c-36.2-.09-70.95,14.24-96.57,39.82-25.62,25.58-40,60.31-39.96,96.51v205.21c.19,75.29,61.24,136.25,136.54,136.33h409.6ZM409.6,273.07h68.27v68.27h-68.27v-68.27ZM204.8,273.07h68.27v68.27h-68.27v-68.27ZM204.8,273.07"/>
</svg>