<?xml version="1.0" encoding="UTF-8"?>
<svg id="_图层_1" data-name="图层 1" xmlns="http://www.w3.org/2000/svg" viewBox="0 0 704.37 704.92">
  <defs>
    <style>
      .cls-1 {
        fill: #fff;
      }
    </style>
  </defs>
  <path class="cls-1" d="M482.71,4.98l216.64,216.61c4.55,4.54,6.16,11.26,4.16,17.38-2,6.12-7.26,10.59-13.62,11.57l-50.31,7.85-193.06-193.05,7.24-50.69c.92-6.39,5.36-11.72,11.49-13.76,6.13-2.05,12.88-.46,17.46,4.1h0ZM73.08,657.27c127.05-113.7,272.9-147.73,431.55-188.41l15.22-137.15-146.67-146.67-137.15,15.22c-40.69,158.65-74.72,304.47-188.41,431.55L0,584.23c96.53-112.64,132.78-237.33,181.01-446.5l217.23-24.13,193.09,193.09-24.13,217.22c-209.17,48.27-333.89,84.48-446.5,181.01l-47.62-47.65ZM253.44,451.45c-17.75-17.14-24.86-42.52-18.62-66.39,6.25-23.87,24.89-42.51,48.75-48.76,23.87-6.25,49.25.87,66.39,18.62,25.5,26.84,24.97,69.11-1.2,95.29-26.17,26.18-68.45,26.73-95.29,1.23h-.03ZM253.44,451.45"/>
</svg>