<?xml version="1.0" encoding="UTF-8"?>
<svg id="_图层_1" data-name="图层 1" xmlns="http://www.w3.org/2000/svg" xmlns:xlink="http://www.w3.org/1999/xlink" viewBox="0 0 615 683.76">
  <defs>
    <style>
      .cls-1 {
        fill: none;
      }

      .cls-2 {
        fill: #fff;
      }

      .cls-3 {
        clip-path: url(#clippath);
      }
    </style>
    <clipPath id="clippath">
      <rect class="cls-1" x=".12" width="614.88" height="683.76"/>
    </clipPath>
  </defs>
  <g class="cls-3">
    <path class="cls-2" d="M477.87.13v68.27h102.64c18.71,0,33.89,15.19,33.89,33.89v546.61c-.02,18.71-15.18,33.88-33.89,33.89H33.89c-18.71-.02-33.88-15.18-33.89-33.89V102.29c0-18.7,15.19-33.89,33.89-33.89h102.64V.13h341.33ZM136.53,136.67h-68.27v477.86h477.87V136.67h-68.27v68.27H136.53v-68.27ZM204.8,478v68.27h-68.27v-68.27h68.27ZM204.8,375.6v68.27h-68.27v-68.27h68.27ZM204.8,273.2v68.27h-68.27v-68.27h68.27ZM409.6,68.4h-204.8v68.27h204.8v-68.27ZM409.6,68.4"/>
  </g>
</svg>