<?xml version="1.0" encoding="UTF-8"?>
<svg id="_图层_1" data-name="图层 1" xmlns="http://www.w3.org/2000/svg" viewBox="0 0 716.8 716.8">
  <defs>
    <style>
      .cls-1 {
        fill: #323333;
      }
    </style>
  </defs>
  <path class="cls-1" d="M358.4,85.15c51.95,0,94.06,42.11,94.06,94.05s-42.11,94.05-94.06,94.05-94.05-42.11-94.05-94.05,42.11-94.05,94.05-94.05h0ZM358.4,488.34c133.07,0,273.31,65.38,273.31,94.05v49.31H85.09v-49.31c0-28.67,140.19-94.11,273.25-94.11l.05.05ZM358.4,0c-47.53-.01-93.12,18.86-126.73,52.47-33.61,33.61-52.48,79.19-52.47,126.73,0,99.02,80.18,179.2,179.2,179.2s179.2-80.17,179.2-179.2S457.42,0,358.4,0h0ZM358.4,409.6C238.8,409.6,0,468.43,0,585.16v131.64h716.8v-131.64c0-116.73-238.8-175.56-358.4-175.56h0ZM358.4,409.6"/>
</svg>