<?xml version="1.0" encoding="UTF-8"?>
<svg id="_图层_1" data-name="图层 1" xmlns="http://www.w3.org/2000/svg" viewBox="0 0 614.4 682.67">
  <defs>
    <style>
      .cls-1 {
        fill: #333;
      }
    </style>
  </defs>
  <path class="cls-1" d="M477.87,0v68.27h102.64c18.71,0,33.89,15.19,33.89,33.89v546.61c-.02,18.71-15.18,33.88-33.89,33.89H33.89c-18.71-.02-33.88-15.18-33.89-33.89V102.16c0-18.7,15.19-33.89,33.89-33.89h102.64V0h341.33ZM136.53,136.53h-68.27v477.86h477.87V136.53h-68.27v68.27H136.53v-68.27ZM409.6,68.27h-204.8v68.27h204.8v-68.27ZM409.6,68.27,403.76,308.26l48.27,48.26-168.96,168.96-120.7-120.7,48.33-48.27,72.4,72.43,120.69-120.7h-.03Z"/>
</svg>